<svg width="24" height="24" viewBox="0 0 24 24" fill="none" xmlns="http://www.w3.org/2000/svg">
<path d="M14.4638 4.07348C14.5007 4.37833 14.5469 4.68319 14.5793 4.98805C14.6347 5.47305 14.6255 5.46843 15.0273 5.19128C15.5955 4.78943 16.1682 4.39681 16.741 4.00419C16.8565 3.92567 16.9119 3.87024 16.8426 3.70857C16.6856 3.34367 16.6671 2.95567 16.8334 2.58152C17.0736 2.04109 17.5909 1.86095 18.1267 2.11038C18.7734 2.41062 19.1059 3.39448 18.7734 4.01343C18.4408 4.63238 17.7156 4.75248 17.226 4.249C17.0782 4.09657 16.995 4.07809 16.8287 4.22128C16.1544 4.79867 15.5123 5.40376 14.8887 6.02733C14.8148 6.10124 14.8056 6.17052 14.8287 6.27214C15.346 8.48467 16.2052 10.5448 17.6186 12.3462C18.6533 13.6672 19.9096 14.7342 21.3646 15.5703C21.8312 15.8382 22.3162 16.0784 22.8243 16.314C22.6626 16.4156 22.4917 16.4387 22.33 16.4849C21.3323 16.7574 20.3161 16.9375 19.2768 16.9144C18.002 16.8867 16.8334 16.5588 15.8865 15.658C15.1566 14.9698 14.7132 14.106 14.4315 13.1591C13.9649 11.5933 13.8864 9.98124 13.9511 8.35995C13.9696 7.88419 14.0019 7.40843 14.0296 6.90495C13.8079 7.06662 13.6416 7.26062 13.4661 7.44076C11.4568 9.45928 9.48908 11.524 7.68765 13.7411C6.59293 15.0899 5.55365 16.4756 4.72684 18.0091C4.33422 18.739 3.99703 19.4965 3.83998 20.3187C3.73836 20.8545 3.73836 21.381 3.9416 21.8938C3.95084 21.9169 3.95084 21.9446 3.96469 22C3.05012 21.866 2.17712 21.6813 1.5166 20.9838C1.01312 20.4619 0.962312 19.8152 1.01774 19.15C1.11474 18.0507 1.5905 17.09 2.18174 16.18C3.13326 14.7158 4.33422 13.4686 5.61369 12.2861C7.07331 10.9374 8.62993 9.69948 10.2235 8.51238C11.4614 7.59781 12.7224 6.71557 13.9973 5.85643C14.0989 5.78714 14.1497 5.71786 14.1636 5.59314C14.2328 5.08505 14.3206 4.58157 14.4037 4.07809H14.4592L14.4638 4.07348Z" fill="#200A69"/>
<path d="M12.5609 9.72313C12.4038 10.2774 12.2191 10.8225 12.0713 11.3721C11.8449 12.2036 11.6879 13.0442 11.711 13.9034C11.7433 15.0627 12.0897 16.0882 13.0367 16.8272C13.7064 17.3492 14.487 17.6078 15.3092 17.7603C15.6741 17.8296 16.0437 17.8757 16.4455 17.8942C16.2977 18.0097 16.136 18.0328 15.9928 18.0836C14.912 18.4347 13.8173 18.7441 12.6856 18.8827C11.9004 18.9751 11.1151 19.0074 10.3622 18.6933C9.6278 18.3885 9.26289 17.8065 9.18437 17.0351C9.07351 15.9773 9.39222 15.0073 9.81256 14.065C10.4361 12.6747 11.2814 11.4183 12.196 10.2035C12.3161 10.0418 12.4408 9.88018 12.5609 9.71851V9.72313Z" fill="#200A69"/>
</svg>
